<svg xmlns="http://www.w3.org/2000/svg" viewBox="0 0 200 200">
  <g transform="matrix(0.9777470231056214, 0, 0, 0.9774460792541505, -549.1043701171875, -521.1543579101562)">
    <defs>
      <circle id="SVGID_00000140004085329617159710000018329169410581418922_" cx="663.878" cy="635.456" r="102.276"/>
    </defs>
    <clipPath id="SVGID_00000008848009155963315060000008652216284912563374_">
      <circle cx="663.878" cy="635.456" r="102.276" style="overflow: visible;"/>
    </clipPath>
    <circle style="fill:#BBD64A;" cx="663.878" cy="635.456" r="102.276"/>
    <g style="clip-path:url(#SVGID_00000008848009155963315060000008652216284912563374_);">
      <g>
        <path style="fill: rgb(188, 64, 41);" d="M 631.549 662.387 C 630.619 664.776 632.422 669.233 631.641 672.406 C 630.707 676.201 628.909 680.303 627.278 683.818 C 623.912 691.068 619.04 697.524 615.857 704.867 C 612.933 711.613 610.27 737.732 610.304 737.732 C 610.396 737.732 670.171 737.732 670.171 737.732 C 670.171 737.732 671.393 733.505 671.357 727.295 C 671.285 714.777 671.915 701.49 671.357 689.024 C 671.033 681.8 669.321 674.646 662.642 670.053 C 657.946 666.823 653.096 666.184 647.92 664.329 C 643.995 662.921 639.854 661.1 631.549 662.387 Z"/>
        <path style="fill:#BC4029;" d="M 696.206 662.373 C 697.136 664.762 695.333 669.22 696.114 672.394 C 697.048 676.189 698.846 680.292 700.477 683.807 C 703.843 691.058 708.715 697.515 711.898 704.859 C 714.822 711.606 715.705 718.867 716.416 726.151 C 717.024 732.379 656.375 738.483 656.356 737.732 C 656.353 737.591 656.363 733.502 656.399 727.291 C 656.471 714.771 655.841 701.481 656.399 689.014 C 656.723 681.789 658.435 674.634 665.114 670.04 C 669.81 666.81 674.66 666.171 679.836 664.315 C 683.76 662.906 687.901 661.086 696.206 662.373 Z"/>
        <path style="fill:#E9D8C9;" d="M 692.516 737.732 C 692.486 737.732 691.473 715.531 686.563 705.269 C 682.747 697.291 675.383 687.607 665.446 687.499 C 664.983 687.333 664.493 687.271 663.979 687.318 C 663.35 687.224 662.759 687.298 662.205 687.516 C 652.32 687.689 644.994 697.333 641.19 705.283 C 636.281 715.545 635.031 737.732 634.919 737.732 C 634.743 737.732 693.083 737.732 692.516 737.732 Z"/>
        <g>
          <g>
            <path id="XMLID_2_" style="fill:#702E1E;" d="M610.74,558.988c0,0,9.681,0.164,21,8.581          c11.319,8.417,16.761,16.899,18.068,19.656c1.306,2.757,2.032,5.514,2.032,5.514s-13.496,2.177-19.591,6.095          c-6.095,3.918-13.205,13.205-13.205,13.205s-4.53-5.474-8.303-17.374C606.967,582.766,607.402,563.922,610.74,558.988z"/>
            <path style="fill:#E9D8C9;" d="M629.708,572.988c-9.578-9.578-16.081-11.193-17.387-10.613s-0.467,13.938,1.129,20.323          c1.596,6.385,4.143,13.089,6.755,18.313c1.352,2.704,2.49,4.511,3.343,5.69c2.514-2.766,5.727-5.955,8.702-7.867          c2.937-1.888,7.591-3.37,11.626-4.401C641.162,589.302,636.86,580.14,629.708,572.988z"/>
          </g>
          <path style="fill:#E9D8C9;" d="M614.956,615.652c0,0,3.763,4.652-2.07,13.224c-11.065,16.258-33.846,11.047-33.846,11.047         l17.196,6.748c0,0-1.524,2.177-7.183,5.333c-4.873,2.718-6.53,3.156-6.53,3.156s7.619,2.177,12.19,2.177         s7.836-0.218,7.836-0.218s-4.136,4.136-5.442,6.53c-1.306,2.394-1.741,3.918-1.741,3.918s22.856-5.877,42.228,3.265         c19.373,9.142,22.638,20.026,23.291,22.638s1.741,0.218,1.741,0.218s0.871-35.916-5.006-52.241         c-5.877-16.325-14.149-35.481-21.114-36.134S614.956,615.652,614.956,615.652z"/>
          <g>
            <circle style="fill:#231F20;" cx="634.51" cy="642.65" r="5.912"/>
            <circle style="fill:#FFFFFF;" cx="634.51" cy="642.65" r="1.859"/>
          </g>
          <ellipse style="fill:#231F20;" cx="663.859" cy="695.32" rx="6.312" ry="7.292"/>
        </g>
        <g>
          <g>
            <path id="XMLID_1_" style="fill:#702E1E;" d="M717.015,558.974c0,0-9.681,0.164-21,8.581          c-11.319,8.417-16.762,16.899-18.068,19.656c-1.306,2.757-2.032,5.514-2.032,5.514s13.496,2.177,19.59,6.095          c6.095,3.918,13.205,13.205,13.205,13.205s4.53-5.474,8.303-17.374C720.788,582.752,720.353,563.907,717.015,558.974z"/>
            <path style="fill:#E9D8C9;" d="M698.047,572.974c9.578-9.578,16.081-11.193,17.387-10.613          c1.306,0.58,0.467,13.938-1.129,20.323c-1.596,6.385-4.143,13.089-6.755,18.313c-1.352,2.704-2.49,4.511-3.343,5.69          c-2.514-2.766-5.727-5.955-8.701-7.867c-2.937-1.888-7.591-3.37-11.626-4.401          C686.593,589.287,690.896,580.125,698.047,572.974z"/>
          </g>
          <path style="fill:#E9D8C9;" d="M712.8,615.637c0,0-3.763,4.652,2.07,13.224c11.065,16.258,33.846,11.047,33.846,11.047         l-17.196,6.748c0,0,1.524,2.177,7.183,5.333c4.873,2.718,6.53,3.156,6.53,3.156s-7.619,2.177-12.19,2.177         s-7.836-0.218-7.836-0.218s4.136,4.136,5.442,6.53s1.741,3.918,1.741,3.918s-22.856-5.877-42.228,3.265         s-22.638,20.026-23.291,22.638c-0.653,2.612-1.741,0.218-1.741,0.218s-0.871-35.916,5.006-52.241         c5.877-16.325,14.149-35.481,21.114-36.134C698.216,604.645,712.8,615.637,712.8,615.637z"/>
          <g>
            <circle style="fill:#231F20;" cx="693.245" cy="642.636" r="5.912"/>
            <circle style="fill:#FFFFFF;" cx="693.245" cy="642.636" r="1.859"/>
          </g>
          <path style="fill:#BC4029;" d="M701.547,598.151c-14.258-12.79-61.142-12.721-75.339,0.014         c-15.131,13.573-19.871,37.484-19.871,37.484s13.349-11.038,24.613-9.484c13.097,1.806,19.558,6.304,23.258,23.936         c3.7,17.631,6.458,45.545,6.458,45.545h3.047h0.994v-0.014h2.38c0,0,2.758-27.913,6.458-45.545s10.161-22.129,23.258-23.936         c11.264-1.554,24.613,9.484,24.613,9.484S716.678,611.724,701.547,598.151z"/>
          <ellipse style="fill:#231F20;" cx="663.896" cy="695.305" rx="6.312" ry="7.292"/>
        </g>
      </g>
      <path style="opacity:0.2;fill:#FFFFFF;" d="M 663.044 588.608 C 658.876 588.642 654.719 588.904 650.737 589.413 C 650.471 588.719 650.163 587.975 649.808 587.225 C 648.502 584.468 643.059 575.985 631.74 567.569 C 620.421 559.153 610.74 558.988 610.74 558.988 C 607.402 563.922 606.967 582.766 610.74 594.666 C 612.957 601.657 615.428 606.413 617.095 609.162 C 609.665 620.874 606.759 633.664 606.383 635.431 C 594.721 643.498 579.04 639.922 579.04 639.922 L 596.236 646.67 C 596.236 646.67 594.712 648.847 589.053 652.003 C 584.18 654.721 582.523 655.159 582.523 655.159 C 582.523 655.159 590.142 657.336 594.713 657.336 C 599.284 657.336 602.549 657.118 602.549 657.118 C 602.549 657.118 598.413 661.254 597.107 663.648 C 595.801 666.042 595.366 667.566 595.366 667.566 C 595.366 667.566 613.887 662.809 631.716 668.528 C 631.865 669.884 631.931 671.234 631.642 672.408 C 630.708 676.203 628.91 680.306 627.279 683.821 C 623.913 691.072 619.041 697.529 615.858 704.873 C 612.934 711.62 610.966 726.444 611.34 726.165 C 611.374 726.14 631.292 737.795 631.008 737.795 C 630.916 737.795 663.19 737.795 663.364 737.795 L 663.045 588.608 L 663.044 588.608 Z"/>
    </g>
  </g>
</svg>
