<svg xmlns="http://www.w3.org/2000/svg" viewBox="0 0 200 200">
  <g transform="matrix(0.9777470231056214, 0, 0, 0.9774540662765504, -549.1046752929688, -278.39068603515625)">
    <defs>
      <circle id="SVGID_00000028293908216140568850000018418452350318295968_" cx="663.878" cy="387.088" r="102.276"/>
    </defs>
    <clipPath id="SVGID_00000059289200479322880960000013229946015267591563_">
      <circle cx="663.878" cy="387.088" r="102.276" style="overflow: visible;"/>
    </clipPath>
    <circle style="fill:#FFCA3C;" cx="663.878" cy="387.088" r="102.276"/>
    <g style="clip-path:url(#SVGID_00000059289200479322880960000013229946015267591563_);">
      <g>
        <path style="fill:#818689;" d="M 719.782 450.837 C 719.368 442.539 718.495 433.653 716.542 425.543 C 714.816 418.376 712.671 400.435 706.853 396.467 C 703.434 387.816 684.871 388.773 676.788 391.325 C 667.51 394.255 664.351 398.571 663.431 404.54 C 662.511 398.57 659.352 394.254 650.074 391.325 C 641.991 388.772 623.428 387.816 620.009 396.467 C 614.191 400.435 612.047 418.376 610.32 425.543 C 608.367 433.653 607.493 442.539 607.08 450.837 C 606.751 457.443 606.281 465.37 607.524 471.751 C 609.561 482.208 629.083 486.009 629.462 485.212 C 629.815 484.468 653.74 489.811 663.86 489.364 C 663.967 488.647 663.338 488.52 663.431 487.802 C 663.524 488.52 663.754 488.648 663.86 489.364 C 673.98 489.811 699.075 484.463 699.356 485.212 C 699.655 486.009 717.301 482.208 719.338 471.751 C 720.581 465.371 720.111 457.443 719.782 450.837 Z M 663.431 418.865 C 663.658 424.393 663.603 429.957 663.431 435.537 C 663.259 429.957 663.204 424.393 663.431 418.865 Z"/>
        <path style="fill:#C1BDBB;" d="M708.188,425.891c-1.604-4.339-3.673-7.912-3.117-12.719c0.513-4.43,2.22-7.832,2.227-12.696        c-1.274-5.124-13.797-8.371-18.527-8.952c-7.328-0.899-18.291-1.898-25.34,1.949c-7.049-3.847-18.012-2.849-25.34-1.949        c-4.73,0.58-17.253,3.828-18.527,8.952c0.008,4.864,1.715,8.266,2.227,12.696c0.556,4.807-1.513,8.38-3.117,12.719        c-3.642,9.853,1.186,21.186,7.139,29.388c7.484,10.312,17.721,19.25,29.845,23.935c2.636,1.019,5.352,1.756,7.773,1.506        c2.421,0.251,5.137-0.487,7.773-1.506c12.124-4.685,22.362-13.622,29.845-23.935        C707.002,447.076,711.83,435.743,708.188,425.891z"/>
        <g>
          <path style="fill:#818689;" d="M643.174,352.016c-3.166-14.519-19.095-27.114-33.265-27.585         c-9.99-0.332-34.758,10.301-20.327,22.534c-11.395,2.152-10.474,12.458,0.751,13.303c-3.754,6.707-3.227,13.492,6.472,13.777         c-0.51,13.623,23.146,17.775,32.641,12.248C642.218,378.858,638.681,362.495,643.174,352.016z"/>
          <path style="fill:#C1BDBB;" d="M628.57,395.828c14.015-14.661,13.443-34.788,0.611-49.272         c-4.919-5.552-9.954-10.711-18.162-10.696c-7.724,0.014-12.635,5.286-11.654,13.163c0.687,5.518,4.903,5.851,4.873,7.533         c-0.032,1.747-2.525,2.863-2.777,6.217c-0.431,5.746,2.148,8.028,7.557,9.732c-5.227,9.714,10.596,10.336,16.166,10.482         C627.053,387.523,624.557,392.911,628.57,395.828z"/>
        </g>
        <g>
          <path style="fill:#818689;" d="M683.688,352.016c3.166-14.519,19.095-27.114,33.265-27.585         c9.99-0.332,34.758,10.301,20.327,22.534c11.395,2.152,10.474,12.458-0.751,13.303c3.754,6.707,3.227,13.492-6.472,13.777         c0.51,13.623-23.146,17.775-32.641,12.248C684.644,378.858,688.181,362.495,683.688,352.016z"/>
          <path style="fill:#C1BDBB;" d="M698.292,395.828c-14.015-14.661-13.443-34.788-0.611-49.272         c4.919-5.552,9.954-10.711,18.162-10.696c7.724,0.014,12.635,5.286,11.654,13.163c-0.687,5.518-4.903,5.851-4.873,7.533         c0.032,1.747,2.525,2.863,2.777,6.217c0.431,5.746-2.148,8.028-7.557,9.732c5.227,9.714-10.596,10.336-16.166,10.482         C699.809,387.523,702.305,392.911,698.292,395.828z"/>
        </g>
        <path style="fill:#818689;" d="M712.848,370.36c-4.761-10.965-9.466-21.866-18.704-29.939        c-8.365-7.31-19.697-7.538-30.368-7.545c0.001,0,0.001-0.001,0.001-0.001c-0.115,0-0.231,0-0.346,0c-0.115,0-0.231,0-0.346,0        c0.001,0,0.001,0.001,0.001,0.001c-10.672,0.006-22.003,0.235-30.369,7.545c-9.238,8.073-13.944,18.974-18.705,29.939        c-3.293,7.584-5.866,19.182-2.867,27.344c3.771,10.262,14.797,16.539,24.556,19.782c8.356,2.777,18.965,2.972,27.728,2.551        c8.763,0.421,19.372,0.226,27.729-2.551c9.759-3.244,20.785-9.521,24.556-19.782        C718.714,389.542,716.141,377.944,712.848,370.36z M663.431,333.104c0.728,0.493,0.454,0.444,0,0.455        C662.977,333.548,662.703,333.597,663.431,333.104z"/>
        <g>
          <g>
            <path style="fill:#231F20;" d="M662.962,395.842c1.487,5.514-1.951,10.125-7.096,11.931          c-4.439,1.558-8.554,0.845-12.686-1.121c-0.263-0.125-0.545,0.192-0.323,0.418c7.193,7.319,25.273-0.462,20.544-11.414          C663.292,395.401,662.892,395.585,662.962,395.842L662.962,395.842z"/>
          </g>
        </g>
        <g>
          <circle style="fill:#231F20;" cx="642.283" cy="371.52" r="5.831"/>
          <circle style="fill:#FFFFFF;" cx="642.283" cy="371.52" r="1.834"/>
        </g>
        <path style="fill:#231F20;" d="M674.556,370.852c-1.631-6.641-4.572-7.673-10.439-7.783c-0.002-0.004-0.004-0.009-0.007-0.013        c-0.234,0-0.454,0.003-0.68,0.005c-0.226-0.002-0.446-0.005-0.68-0.005c-0.002,0.004-0.004,0.009-0.006,0.013        c-5.867,0.111-8.808,1.142-10.439,7.783c-1.211,4.928-2.235,11.218-1.951,16.388c0.278,5.049,2.712,10.844,11.007,12.317        c0.545,0.22,1.227,0.313,2.069,0.26c0.842,0.053,1.524-0.04,2.069-0.26c8.295-1.473,10.729-7.268,11.007-12.317        C676.791,382.07,675.767,375.78,674.556,370.852z"/>
        <g>
          <g>
            <path style="fill:#231F20;" d="M664.638,395.656c-4.729,10.951,13.351,18.732,20.544,11.414          c0.221-0.225-0.057-0.544-0.323-0.418c-4.132,1.967-8.247,2.68-12.686,1.121c-5.145-1.806-8.582-6.418-7.096-11.931          C665.147,395.588,664.749,395.399,664.638,395.656L664.638,395.656z"/>
          </g>
        </g>
        <g>
          <circle style="fill:#231F20;" cx="684.579" cy="371.52" r="5.831"/>
          <circle style="fill:#FFFFFF;" cx="684.579" cy="371.52" r="1.834"/>
        </g>
      </g>
      <path style="opacity:0.2;fill:#FFFFFF;" d="M 664.103 332.877 C 663.994 332.877 663.884 332.876 663.775 332.876 C 663.776 332.876 663.776 332.875 663.776 332.875 C 663.661 332.875 663.545 332.875 663.43 332.875 C 663.315 332.875 663.199 332.875 663.084 332.875 C 663.085 332.875 663.085 332.876 663.085 332.876 C 653.713 332.882 643.833 333.062 635.899 338.057 C 629.189 330.233 619.173 324.739 609.907 324.431 C 599.917 324.099 575.149 334.732 589.581 346.965 C 578.186 349.117 579.107 359.423 590.332 360.268 C 586.578 366.975 587.104 373.76 596.804 374.045 C 596.543 381.014 602.61 385.498 609.866 387.482 C 609.681 391.11 610.023 394.648 611.146 397.704 C 612.079 400.242 613.457 402.534 615.148 404.598 C 612.755 411.577 611.448 420.859 610.32 425.542 C 608.367 433.652 607.493 442.538 607.08 450.836 C 606.751 457.442 606.281 465.37 607.524 471.75 C 609.561 482.207 629.389 485.757 629.462 485.757 C 629.534 485.757 653.593 489.838 663.713 489.391 C 663.82 488.674 663.338 488.519 663.431 487.801 C 663.524 488.519 663.042 488.675 663.149 489.391 C 663.28 489.397 663.973 489.386 664.104 489.391 L 664.104 332.877 L 664.103 332.877 Z M 663.431 333.558 C 662.977 333.548 662.703 333.597 663.431 333.103 C 664.159 333.597 663.885 333.548 663.431 333.558 Z"/>
    </g>
  </g>
</svg>
