<svg xmlns="http://www.w3.org/2000/svg" viewBox="0 0 200 200">
  <defs>
    <clipPath id="clip-0">
      <circle cx="663.757" cy="138.72" r="102.276" transform="matrix(1, 0, 0, 0.999183, 0.00001, 0.197091)"/>
    </clipPath>
  </defs>
  <g transform="matrix(0.977745115757, 0, 0, 0.977747023106, -561.601536686507, -36.444002174327)" style="transform-origin: 561.602px 36.444px;">
    <circle style="fill: rgb(255, 100, 112); transform-origin: 561.602px 36.444px;" cx="663.878" cy="138.72" r="102.276" transform="matrix(1, 0, 0, 1, -0.00003, 0)"/>
    <g style="clip-path: url('#clip-0');" transform="matrix(1, 0, 0, 1.000818, -0.00001, -0.197252)">
      <g>
        <g>
          <path style="fill:#666666;" d="M623.44,135.227c0,0-9.364-9.364-19.063-5.351c-9.699,4.013-10.702,14.381-3.01,17.056         c7.692,2.675,16.387,3.679,19.397,1.672C623.775,146.597,623.44,135.227,623.44,135.227z"/>
          <path style="fill:#666666;" d="M704.315,135.227c0,0,9.364-9.364,19.063-5.351c9.699,4.013,10.702,14.381,3.01,17.056         c-7.692,2.675-16.387,3.679-19.397,1.672C703.98,146.597,704.315,135.227,704.315,135.227z"/>
          <path style="fill: rgb(102, 102, 102);" d="M 621.434 240.996 C 627.568 240.996 699.194 240.996 704.485 240.996 C 713.503 240.996 720.256 225.077 712.675 211.253 C 705.914 198.924 671.861 196.174 664.575 195.724 L 664.575 195.646 C 664.575 195.646 664.315 195.658 663.877 195.682 C 663.439 195.658 663.179 195.646 663.179 195.646 L 663.179 195.724 C 655.893 196.175 621.841 198.924 615.079 211.253 C 607.498 225.076 612.415 240.996 621.434 240.996 Z"/>
          <path style="fill: rgb(51, 51, 51);" d="M 766.154 240.996 C 766.154 240.996 726.498 195.202 715.35 158.191 C 704.202 121.18 707.404 109.101 694.392 82.832 C 683.919 61.688 665.447 61.911 661.38 62.235 C 656.06 62.188 642.647 64.083 633.361 82.832 C 620.349 109.101 623.551 121.181 612.403 158.191 C 601.255 195.202 561.455 240.996 561.602 240.996 C 561.749 240.996 636.505 240.996 636.269 240.996 C 636.021 240.996 628.009 229.984 636.035 217.944 C 643.353 206.966 660.662 203.926 663.695 203.912 C 666.246 203.9 684.254 206.754 691.714 217.944 C 699.74 229.984 692.01 240.996 691.761 240.996 C 691.525 240.996 766.154 240.996 766.154 240.996 Z"/>
          <g>
            <defs>
              <path id="XMLID_7_" d="M701.444,146.932c-2.988-17.2-8.871-35.785-8.871-35.785s-1.564-0.939-7.341-1.338           c-4.585-0.317-17.2-1.154-23.117-1.058c-4.392-0.096-15.006,0.741-19.591,1.058c-5.777,0.399-7.341,1.338-7.341,1.338           s-5.883,18.584-8.871,35.785c-3.428,19.732-4.588,30.099,7.647,43.811c10.215,11.447,24.998,11.196,29.447,11.12           c4.654-0.08,18.812,2.436,30.391-11.12C705.732,176.769,704.872,166.663,701.444,146.932z"/>
            </defs>
            <path d="M701.444,146.932c-2.988-17.2-8.871-35.785-8.871-35.785s-1.564-0.939-7.341-1.338           c-4.585-0.317-17.2-1.154-23.117-1.058c-4.392-0.096-15.006,0.741-19.591,1.058c-5.777,0.399-7.341,1.338-7.341,1.338           s-5.883,18.584-8.871,35.785c-3.428,19.732-4.588,30.099,7.647,43.811c10.215,11.447,24.998,11.196,29.447,11.12           c4.654-0.08,18.812,2.436,30.391-11.12C705.732,176.769,704.872,166.663,701.444,146.932z" style="overflow: visible; fill: rgb(140, 140, 140);"/>
            <clipPath id="XMLID_00000006675674758611861850000014971308918073696922_">
              <path d="M701.444,146.932c-2.988-17.2-8.871-35.785-8.871-35.785s-1.564-0.939-7.341-1.338           c-4.585-0.317-17.2-1.154-23.117-1.058c-4.392-0.096-15.006,0.741-19.591,1.058c-5.777,0.399-7.341,1.338-7.341,1.338           s-5.883,18.584-8.871,35.785c-3.428,19.732-4.588,30.099,7.647,43.811c10.215,11.447,24.998,11.196,29.447,11.12           c4.654-0.08,18.812,2.436,30.391-11.12C705.732,176.769,704.872,166.663,701.444,146.932z" style="overflow: visible;"/>
            </clipPath>
            <path style="clip-path:url(#XMLID_00000006675674758611861850000014971308918073696922_);fill:#B2B2B2;" d="          M620.208,181.156c0,0,2.675-8.695,13.823-15.384c11.148-6.689,19.397-6.689,19.397-6.689s-9.083-5.882-2.608-12.524          c4.848-4.972,9.965,0.93,11.08,2.714c1.115,1.784,1.338,2.898,1.338,2.898s2.564-7.692,6.8-7.915          c6.683-0.352,8.353,3.583,7.684,8.265c-0.669,4.682-3.113,5.893-3.113,5.893s12.04,2.898,19.843,8.249          s10.033,16.722,10.033,16.722s-18.06,23.187-39.24,24.302C644.064,208.802,620.208,181.156,620.208,181.156z"/>
            <circle style="clip-path:url(#XMLID_00000006675674758611861850000014971308918073696922_);fill:#333333;" cx="655.546" cy="151.447" r="2.341"/>
            <circle style="clip-path:url(#XMLID_00000006675674758611861850000014971308918073696922_);fill:#333333;" cx="670.763" cy="151.279" r="2.341"/>
          </g>
          <rect x="621.434" y="179.581" style="fill:#333333;" width="82.94" height="1.923"/>
        </g>
        <g>
          <circle style="fill:#231F20;" cx="655.91" cy="136.477" r="5.076"/>
          <circle style="fill:#FFFFFF;" cx="655.91" cy="136.477" r="1.596"/>
        </g>
        <g>
          <circle style="fill:#231F20;" cx="670.794" cy="136.477" r="5.076"/>
          <circle style="fill:#FFFFFF;" cx="670.794" cy="136.477" r="1.596"/>
        </g>
      </g>
      <path style="opacity: 0.2; fill: rgb(255, 255, 255); transform-origin: 561.602px 36.611px;" d="M 662.734 62.162 C 662.005 62.169 661.401 62.2 660.968 62.235 C 655.664 62.188 642.29 64.083 633.031 82.832 C 623.72 101.685 622.735 113.23 618.812 131.927 C 615.184 129.702 609.715 127.558 604.132 129.876 C 594.461 133.889 593.461 144.257 601.13 146.932 C 605.734 148.538 610.689 149.535 614.571 149.646 C 613.84 152.348 613.039 155.18 612.135 158.191 C 601.019 195.202 561.481 240.996 561.481 240.996 C 561.481 240.996 662.305 240.996 662.305 240.996 L 662.734 62.162 Z"/>
    </g>
  </g>
</svg>
