<svg xmlns="http://www.w3.org/2000/svg" viewBox="0 0 200 200">
  <defs>
    <clipPath id="clip-0">
      <circle cx="400.382" cy="635.456" r="102.276"></circle>
    </clipPath>
  </defs>
  <g transform="matrix(0.9777470231056213, 0, 0, 0.9777460694313049, -291.4720764160156, -521.314697265625)">
    <circle style="fill:#4DCDFF;" cx="400.382" cy="635.456" r="102.276"></circle>
    <g style="clip-path: url('#SVGID_00000170244031291465462290000009017098997142025606_');">
      <g>
        <g>
          <ellipse style="fill:#B85E26;" cx="441.194" cy="584.504" rx="18.72" ry="19.155"></ellipse>
          <g>
            <ellipse style="fill:#FFFFFF;" cx="438.873" cy="587.548" rx="10.64" ry="10.887"></ellipse>
          </g>
        </g>
        <g>
          <ellipse style="fill:#B85E26;" cx="357.284" cy="584.504" rx="18.72" ry="19.155"></ellipse>
          <ellipse style="fill:#FFFFFF;" cx="359.606" cy="587.548" rx="10.64" ry="10.887"></ellipse>
        </g>
        <g style="clip-path: url('#clip-0');">
          <path style="fill: rgb(255, 172, 69);" d="M 453.216 714.734 C 452.76 705.663 452.059 699.891 450.766 690.856 C 449.572 682.509 444.38 671.817 439.742 665 C 436.565 659.712 427.855 659.623 420.462 659.002 C 415.227 658.562 407.422 659.667 403.378 662.996 C 401.568 664.486 400.19 666.134 399.239 667.937 C 398.288 666.135 396.909 664.486 395.1 662.996 C 391.056 659.666 383.251 658.562 378.016 659.002 C 370.622 659.624 361.913 659.712 358.736 665 C 354.098 671.817 348.906 682.509 347.712 690.856 C 346.42 699.891 345.718 705.663 345.262 714.734 C 344.985 720.234 344.944 726.145 345.67 731.549 C 346.195 735.454 346.303 735.584 350.959 736.117 C 356.589 736.763 362.65 736.875 368.331 736.863 C 377.513 736.844 389.556 737.892 399.238 737.711 C 408.921 737.892 420.963 736.845 430.145 736.863 C 435.826 736.876 441.887 736.763 447.517 736.117 C 452.173 735.584 452.281 735.454 452.806 731.549 C 453.534 726.145 453.493 720.235 453.216 714.734 Z"></path>
          <path style="fill:#FFC57D;" d="M369.959,715.261c0-16.63,16.586-35.381,25.622-42.127c0.731-0.546,1.404-0.836,2.564-0.836        c1.16,0,1.833,0.29,2.564,0.836c9.037,6.746,25.622,25.497,25.622,42.127c0,3.911,0.232,9.009-4.454,10.247        c-4.898,1.295-8.403-4.041-11.48-6.749c-0.657,4.756,0.503,9.165-2.566,13.384c-2.104,2.892-6.006,5.221-9.566,5.106        c-0.001,0.002-0.001,0.004-0.001,0.006c-0.039,0.003-0.079-0.005-0.119-0.003c-0.039-0.002-0.079,0.005-0.119,0.003        c-0.001-0.002-0.001-0.004-0.001-0.006c-3.559,0.115-7.462-2.213-9.565-5.106c-3.069-4.219-1.91-8.628-2.567-13.384        c-3.077,2.708-6.582,8.044-11.48,6.749C369.727,724.27,369.959,719.172,369.959,715.261z"></path>
        </g>
        <path id="XMLID_4_" style="fill:#FFAC45;" d="M398.676,572.894c0,0,11.029-1.161,24.67,4.063        c13.641,5.224,20.316,14.802,24.96,23.509c4.644,8.707,6.095,21.477,6.095,21.477s14.802,5.805,20.316,10.158        c5.514,4.353,5.514,4.353,5.514,4.353l-16.253,4.644c0,0,6.966,8.417,8.997,11.029c2.032,2.612,2.902,4.644,2.902,4.644        h-13.641c0,0,6.095,9.578,7.256,14.511s0.871,8.997,0.871,8.997s-13.06-5.224-29.603-4.353        c-16.543,0.871-26.991,11.609-33.376,14.221s-8.707,2.032-8.707,2.032V572.894z"></path>
        <path id="XMLID_6_" style="fill:#FFAC45;" d="M399.803,572.894c0,0-11.029-1.161-24.67,4.063        c-13.641,5.224-20.316,14.802-24.96,23.509c-4.644,8.707-6.095,21.477-6.095,21.477s-14.802,5.805-20.316,10.158        s-5.514,4.353-5.514,4.353l16.253,4.644c0,0-6.966,8.417-8.997,11.029c-2.032,2.612-2.902,4.644-2.902,4.644h13.641        c0,0-6.095,9.578-7.256,14.511s-0.871,8.997-0.871,8.997s13.06-5.224,29.603-4.353c16.543,0.871,26.991,11.609,33.376,14.221        c6.385,2.612,8.707,2.032,8.707,2.032V572.894z"></path>
        <path style="fill:#FFFFFF;" d="M469.492,671.282c-0.941-3.997-5.118-11.04-6.671-13.571        c-13.469-15.401-41.996-17.693-63.582-16.804c-21.586-0.888-50.113,1.403-63.582,16.804c-1.553,2.531-5.73,9.573-6.671,13.571        c-1.161,4.934-0.871,8.997-0.871,8.997s13.06-5.224,29.603-4.353c16.543,0.871,26.991,11.609,33.376,14.221        c4.64,1.898,7.126,2.109,8.143,2.083c1.017,0.026,3.503-0.185,8.143-2.083c6.385-2.612,16.833-13.351,33.376-14.221        c16.543-0.871,29.603,4.353,29.603,4.353S470.653,676.216,469.492,671.282z"></path>
        <g>
          <path d="M439.536,624.729c0.059-2.507,3.983-6.435,5.388-8.508c1.725-2.546,3.749-5.025,5.644-7.391         c0.222-0.278,0.478-0.65,0.76-0.983c1.288,4.036,2.102,8.007,2.565,10.702c-2.293,1.372-5.46,2.32-7.049,3.098         C444.469,622.81,441.955,623.743,439.536,624.729z"></path>
          <path d="M437.398,611.367c0.255-1.724,8.035-9.459,10.769-11.154c0.045,0.084,0.093,0.169,0.138,0.252         c0.9,1.687,1.678,3.526,2.351,5.396c-1.869,1.106-4.325,1.878-5.978,2.682C442.565,609.57,439.736,611.273,437.398,611.367z"></path>
          <path d="M407.377,599.914c-1.596-6.461-2.415-13.248-3.308-19.868c-0.304-2.255-0.517-4.822-0.908-7.233         c2.692,0.086,6.438,0.415,10.83,1.364c-0.441,4.818-1.767,9.521-2.981,14.206         C410.019,592.209,409.175,596.397,407.377,599.914z"></path>
        </g>
        <g>
          <circle style="fill:#231F20;" cx="418.52" cy="630.739" r="5.345"></circle>
          <circle style="fill:#FFFFFF;" cx="418.52" cy="630.739" r="1.681"></circle>
        </g>
        <path style="fill:#231F20;" d="M399.527,651.414c1.718,0,7.483-0.702,8.39,1.069c0.991,1.935-3.31,5.701-4.532,6.625        c-1.305,0.986-2.259,1.262-3.715,1.899C398.723,658.376,400.123,654.551,399.527,651.414z"></path>
        <g>
          <g>
            <path style="fill:#231F20;" d="M399.3,660.243c-0.551,6.063,1.59,12.695,7.506,15.375c5.497,2.49,13.748,1.306,18.475-2.312          c0.626-0.479-0.167-1.413-0.792-0.934c-4.236,3.242-11.567,4.263-16.59,2.376c-5.802-2.18-7.876-8.591-7.394-14.283          C400.571,659.686,399.371,659.457,399.3,660.243L399.3,660.243z"></path>
          </g>
        </g>
        <path style="fill:none;stroke:#B85E26;stroke-width:1.2249;stroke-linecap:round;stroke-linejoin:round;stroke-miterlimit:10;" d="        M414.853,652.141c17.727-1.682,35.881,1.377,52.078,8.776"></path>
        <path style="fill:none;stroke:#B85E26;stroke-width:1.2249;stroke-linecap:round;stroke-linejoin:round;stroke-miterlimit:10;" d="        M414.801,657.962c21.784,2.89,42.96,10.278,61.814,21.566"></path>
        <path style="fill:none;stroke:#B85E26;stroke-width:1.2249;stroke-linecap:round;stroke-linejoin:round;stroke-miterlimit:10;" d="        M413.889,662.929c24.188,9.439,45.925,25.08,62.559,45.016"></path>
        <g>
          <path d="M358.943,624.729c-0.059-2.507-3.983-6.435-5.388-8.508c-1.725-2.546-3.749-5.025-5.644-7.391         c-0.222-0.278-0.478-0.65-0.76-0.983c-1.288,4.036-2.102,8.007-2.565,10.702c2.293,1.372,5.46,2.32,7.049,3.098         C354.01,622.81,356.524,623.743,358.943,624.729z"></path>
          <path d="M361.08,611.367c-0.255-1.724-8.035-9.459-10.769-11.154c-0.045,0.084-0.093,0.169-0.138,0.252         c-0.9,1.687-1.678,3.526-2.351,5.396c1.869,1.106,4.325,1.878,5.978,2.682C355.914,609.57,358.743,611.273,361.08,611.367z"></path>
          <path d="M391.102,599.914c1.596-6.461,2.415-13.248,3.308-19.868c0.304-2.255,0.517-4.822,0.908-7.233         c-2.692,0.086-6.438,0.415-10.83,1.364c0.441,4.818,1.767,9.521,2.981,14.206         C388.459,592.209,389.303,596.397,391.102,599.914z"></path>
        </g>
        <g>
          <circle style="fill:#231F20;" cx="380.964" cy="630.739" r="5.345"></circle>
          <circle style="fill:#FFFFFF;" cx="380.964" cy="630.739" r="1.681"></circle>
        </g>
        <path style="fill:#231F20;" d="M400.458,651.363c-1.718,0-8.988-0.651-9.895,1.12c-0.991,1.935,3.31,5.701,4.532,6.625        c1.305,0.986,2.988,1.647,4.445,2.284C400.484,658.761,399.861,654.5,400.458,651.363z"></path>
        <g>
          <g>
            <path style="fill:#231F20;" d="M397.966,660.407c0.518,5.729-1.597,12.19-7.437,14.362          c-5.038,1.873-12.353,0.807-16.585-2.432c-0.627-0.48-1.328,0.525-0.703,1.003c4.712,3.606,13.021,4.778,18.481,2.256          c5.871-2.712,7.978-9.251,7.464-15.296C399.12,659.515,397.895,659.621,397.966,660.407L397.966,660.407z"></path>
          </g>
        </g>
        <path style="fill:none;stroke:#B85E26;stroke-width:1.2249;stroke-linecap:round;stroke-linejoin:round;stroke-miterlimit:10;" d="        M383.626,652.141c-17.727-1.682-35.881,1.377-52.078,8.776"></path>
        <path style="fill:none;stroke:#B85E26;stroke-width:1.2249;stroke-linecap:round;stroke-linejoin:round;stroke-miterlimit:10;" d="        M383.677,657.962c-21.784,2.89-42.96,10.278-61.814,21.566"></path>
        <path style="fill:none;stroke:#B85E26;stroke-width:1.2249;stroke-linecap:round;stroke-linejoin:round;stroke-miterlimit:10;" d="        M384.59,662.929c-24.188,9.439-45.925,25.08-62.559,45.016"></path>
      </g>
      <path style="opacity:0.2;fill:#FFFFFF;" d="M 398.748 572.825 C 397.694 572.778 395.883 572.75 393.503 572.904 C 393.327 572.915 393.154 572.926 392.973 572.94 C 392.695 572.961 392.411 572.985 392.119 573.011 C 391.913 573.029 391.702 573.05 391.488 573.072 C 391.185 573.102 390.885 573.132 390.569 573.169 C 390.365 573.193 390.149 573.222 389.94 573.249 C 389.367 573.321 388.777 573.404 388.167 573.499 C 387.922 573.537 387.678 573.575 387.427 573.617 C 387.081 573.675 386.73 573.737 386.373 573.803 C 386.108 573.852 385.838 573.906 385.567 573.959 C 382.395 574.587 378.869 575.527 375.132 576.958 C 374.943 577.031 374.768 577.113 374.581 577.187 C 371.771 570.24 365.088 565.349 357.283 565.349 C 346.944 565.349 338.563 573.925 338.563 584.504 C 338.563 592.222 343.033 598.856 349.46 601.89 C 349.272 602.285 349.09 602.685 348.914 603.091 C 348.912 603.096 348.909 603.102 348.907 603.108 C 348.518 604.008 348.157 604.931 347.822 605.861 L 347.821 605.863 C 347.584 606.523 347.36 607.186 347.149 607.848 L 347.149 607.849 C 346.344 610.37 345.725 612.865 345.261 615.041 C 345.261 615.043 345.26 615.044 345.26 615.046 C 345.169 615.474 345.084 615.888 345.004 616.289 C 345.001 616.305 344.998 616.321 344.994 616.338 C 344.34 619.646 344.077 621.945 344.077 621.945 C 344.077 621.945 329.275 627.75 323.761 632.103 C 318.246 636.457 318.246 636.457 318.246 636.457 L 334.499 641.101 C 334.499 641.101 327.533 649.518 325.502 652.13 C 323.47 654.742 322.6 656.774 322.6 656.774 L 336.241 656.774 C 336.241 656.774 336.002 657.151 335.616 657.78 C 335.522 657.934 335.42 658.1 335.309 658.284 C 335.262 658.362 335.21 658.448 335.16 658.531 C 335.115 658.606 335.071 658.678 335.024 658.757 C 333.771 659.27 332.524 659.8 331.291 660.364 C 330.984 660.505 330.848 660.868 330.988 661.175 C 331.091 661.401 331.313 661.533 331.545 661.533 C 331.63 661.533 331.717 661.515 331.8 661.477 C 332.524 661.146 333.255 660.835 333.986 660.522 C 333.919 660.638 333.851 660.757 333.783 660.876 C 333.735 660.96 333.689 661.039 333.64 661.125 C 333.455 661.45 333.267 661.784 333.076 662.128 C 333.031 662.209 332.986 662.293 332.94 662.376 C 332.793 662.642 332.646 662.911 332.499 663.184 C 332.432 663.308 332.366 663.432 332.299 663.558 C 332.17 663.8 332.043 664.042 331.915 664.287 C 331.846 664.42 331.777 664.552 331.709 664.686 C 331.573 664.952 331.439 665.218 331.306 665.485 C 331.253 665.591 331.2 665.697 331.148 665.803 C 330.966 666.175 330.789 666.545 330.619 666.913 C 330.594 666.966 330.572 667.017 330.548 667.07 C 330.406 667.381 330.269 667.688 330.139 667.991 C 330.089 668.107 330.044 668.219 329.996 668.334 C 329.896 668.575 329.8 668.812 329.709 669.046 C 329.662 669.167 329.616 669.287 329.572 669.406 C 329.486 669.638 329.408 669.862 329.335 670.083 C 329.301 670.185 329.265 670.289 329.234 670.388 C 329.137 670.7 329.05 671.003 328.983 671.287 C 328.838 671.904 328.716 672.507 328.612 673.09 C 328.482 673.826 328.385 674.526 328.309 675.186 C 326.021 676.408 323.764 677.679 321.545 679.007 C 321.254 679.181 321.16 679.557 321.334 679.847 C 321.449 680.039 321.651 680.145 321.859 680.145 C 321.967 680.145 322.076 680.117 322.174 680.058 C 324.143 678.879 326.146 677.752 328.17 676.657 C 328.162 676.769 328.152 676.886 328.145 676.994 C 328.131 677.217 328.12 677.43 328.111 677.634 C 328.093 678.042 328.084 678.412 328.08 678.737 C 328.078 678.899 328.078 679.051 328.079 679.19 C 328.083 679.886 328.111 680.283 328.111 680.283 C 328.111 680.283 330.611 679.283 334.808 678.231 C 335.108 678.156 335.416 678.08 335.733 678.005 C 336.367 677.854 337.034 677.704 337.732 677.557 C 340.176 677.042 343.002 676.564 346.109 676.243 C 346.997 676.151 347.907 676.072 348.839 676.009 C 350.236 675.914 351.679 675.853 353.161 675.837 C 353.168 675.837 353.175 675.837 353.183 675.837 C 352.545 677.241 351.935 678.675 351.367 680.122 C 340.309 687.915 330.256 697.131 321.555 707.558 C 321.339 707.818 321.373 708.204 321.633 708.42 C 321.748 708.516 321.887 708.562 322.025 708.562 C 322.2 708.562 322.374 708.487 322.495 708.342 C 330.74 698.461 340.203 689.668 350.594 682.161 C 349.215 685.965 348.165 689.776 347.706 693.216 C 346.414 702.918 345.712 709.116 345.256 718.857 C 344.979 724.762 345.969 737.732 346.06 737.732 C 346.327 737.732 354.971 737.732 354.912 737.732 C 354.824 737.732 369.256 737.732 368.721 737.732 C 368.647 737.732 397.852 737.732 397.949 737.732 L 398.741 572.825 L 398.748 572.825 Z"></path>
    </g>
  </g>
</svg>
